<?xml version="1.0" standalone="no"?>
<!DOCTYPE svg PUBLIC "-//W3C//DTD SVG 20010904//EN"
 "http://www.w3.org/TR/2001/REC-SVG-20010904/DTD/svg10.dtd">
<svg version="1.0" xmlns="http://www.w3.org/2000/svg"
 width="816.000000pt" height="734.000000pt" viewBox="0 0 816.000000 734.000000"
 preserveAspectRatio="xMidYMid meet">

<g transform="translate(0.000000,734.000000) scale(0.100000,-0.100000)"
fill="#4654a2" stroke="none">
<path d="M2695 6889 c-96 -12 -265 -45 -322 -63 -29 -9 -74 -22 -100 -30 -210
-63 -389 -158 -638 -336 -128 -92 -274 -243 -409 -425 -128 -171 -239 -387
-301 -585 -14 -47 -31 -96 -36 -110 -10 -27 -20 -75 -47 -230 -15 -85 -16
-235 -16 -1480 1 -1213 3 -1397 16 -1485 18 -110 33 -183 48 -229 79 -244 73
-228 150 -391 48 -100 152 -266 239 -379 51 -67 296 -316 310 -316 5 0 30 -17
55 -37 122 -103 276 -190 511 -291 130 -56 346 -112 515 -133 130 -17 2574
-25 2740 -10 423 40 798 182 1120 425 123 92 316 286 406 406 224 299 347 595
412 990 15 96 17 223 17 1455 0 1513 5 1397 -75 1715 -50 202 -210 534 -330
688 -136 173 -331 367 -466 462 -27 19 -64 44 -82 57 -119 83 -393 211 -537
252 -44 12 -94 27 -112 32 -41 12 -188 39 -278 49 -88 11 -2709 10 -2790 -1z
m1534 -1398 c33 -10 80 -30 104 -44 57 -33 158 -142 186 -199 53 -111 51 -31
51 -1767 l0 -1608 -23 -43 c-15 -28 -37 -51 -62 -64 -38 -20 -58 -21 -375 -24
-379 -3 -401 -1 -454 58 -27 30 -36 50 -41 92 -3 29 -5 764 -3 1633 l3 1580
22 66 c71 207 246 337 455 338 48 1 99 -6 137 -18z m-1405 -936 c74 -22 185
-98 231 -158 20 -27 51 -78 68 -115 l32 -67 0 -1197 0 -1196 -25 -27 c-54 -58
-104 -65 -258 -36 -215 41 -435 200 -552 401 -38 66 -51 98 -91 230 -11 37
-14 210 -14 930 l0 885 37 78 c67 140 185 239 334 282 59 17 159 13 238 -10z
m2754 -925 c86 -14 157 -48 221 -106 81 -73 126 -136 153 -211 23 -67 23 -75
23 -453 0 -340 -2 -393 -18 -455 -44 -170 -88 -254 -198 -383 -130 -154 -341
-258 -565 -279 -60 -6 -116 17 -148 60 -21 28 -21 37 -24 670 -2 398 1 674 7
727 26 210 177 382 374 425 78 17 97 17 175 5z"/>
</g>
</svg>
